<?xml version="1.0" encoding="UTF-8"?>
<svg version="1.1" xmlns="http://www.w3.org/2000/svg" width="1000" height="1000">
<path d="M0 0 C330 0 660 0 1000 0 C1000 330 1000 660 1000 1000 C670 1000 340 1000 0 1000 C0 670 0 340 0 0 Z " fill="#000000" transform="translate(0,0)"/>
<path d="M0 0 C3.17930393 3.6079941 4.52421977 7.75762638 6.0546875 12.23046875 C6.34784348 13.06691925 6.64099945 13.90336975 6.94303894 14.76516724 C7.58507148 16.59787547 8.22413615 18.43162541 8.86062622 20.26626587 C10.63594067 25.37888733 12.43712965 30.48237175 14.23828125 35.5859375 C14.62179245 36.67350845 15.00530365 37.76107941 15.4004364 38.88160706 C19.82943773 51.40469293 24.44746578 63.85707052 29.0625 76.3125 C36.75911619 97.10605466 44.33068277 117.94084571 51.8125 138.8125 C52.30532827 140.18716434 52.79815664 141.56182865 53.29098511 142.93649292 C53.78049981 144.30198069 54.27001194 145.66746937 54.75952148 147.03295898 C55.48141866 149.04668341 56.20332525 151.06040445 56.92526436 153.07411385 C57.39824879 154.39342273 57.87120402 155.71274208 58.34412956 157.03207207 C63.1930467 170.55764711 68.09517461 184.06348076 73.01611328 197.56298828 C73.6553157 199.31671637 74.29447545 201.07046 74.93359375 202.82421875 C75.25390564 203.70313782 75.57421753 204.58205688 75.90423584 205.48760986 C78.58472941 212.84814215 81.24898738 220.21449305 83.91015625 227.58203125 C92.73924444 252.02069209 101.61600774 276.43952081 110.625 300.8125 C118.14176481 321.15151132 125.53167171 341.53223895 132.82763672 361.95141602 C133.60901227 364.13819689 134.3904252 366.32496441 135.171875 368.51171875 C135.56114166 369.60104202 135.95040833 370.6903653 136.35147095 371.81269836 C141.11669319 385.13751822 145.9318339 398.44425192 150.75 411.75 C151.18935883 412.96413574 151.62871765 414.17827148 152.08139038 415.42919922 C156.57783313 427.8531722 161.08988948 440.27094163 165.66015625 452.66796875 C166.01864655 453.64172455 166.37713684 454.61548035 166.74649048 455.6187439 C168.40320446 460.11829556 170.06440219 464.61606648 171.73535156 469.11035156 C172.30943104 470.66594691 172.88333596 472.22160668 173.45703125 473.77734375 C173.71839371 474.47433884 173.97975616 475.17133392 174.2490387 475.88945007 C175.2980602 478.74718552 176 480.9275394 176 484 C169.454394 484.16495983 163.42972275 483.6401947 157 482.4375 C156.05431152 482.26114014 155.10862305 482.08478027 154.13427734 481.90307617 C112.72118102 473.82024208 72.59198888 456.65188126 39 431 C38.4234668 430.56478027 37.84693359 430.12956055 37.25292969 429.68115234 C29.70493851 423.96565712 22.55925152 417.94696923 15.65625 411.46875 C13.52450377 409.48747998 11.36209906 407.60792973 9.125 405.75 C-1.3294384 396.64311915 -10.36413732 385.80888779 -18.67773438 374.75488281 C-20.00699452 372.99071703 -21.35447286 371.24155427 -22.703125 369.4921875 C-33.4590636 355.36828601 -42.53343999 340.01933095 -50.07763672 323.95556641 C-50.68674277 322.6641584 -51.3054078 321.37721076 -51.93408203 320.09521484 C-62.10815471 299.34220974 -70.04029136 276.01542391 -73.64697266 253.17480469 C-74.00922302 250.94318214 -74.42480798 248.72718639 -74.85546875 246.5078125 C-81.15862738 213.37285934 -81.14006577 174.9451394 -74 142 C-73.75862305 140.86095215 -73.51724609 139.7219043 -73.26855469 138.54833984 C-64.49830382 98.24379704 -47.79716533 60.02410692 -23 27 C-22.53207031 26.37512695 -22.06414062 25.75025391 -21.58203125 25.10644531 C-14.92470698 16.28129486 -7.82327387 7.82327387 0 0 Z " fill="#000000" transform="translate(290,302)"/>
<path d="M0 0 C25.73651237 10.53126253 46.70205624 58.90283274 57.0625 83 C64.82991838 101.68432217 71.10984581 121.13749741 75 141 C75.19464844 141.93005859 75.38929688 142.86011719 75.58984375 143.81835938 C79.00975102 160.68319621 79.37168936 177.34725347 79.375 194.5 C79.37690338 195.56278168 79.37880676 196.62556335 79.38076782 197.72055054 C79.37702312 216.20241666 78.21622135 234.3202521 74.75 252.5 C74.53384033 253.64235107 74.31768066 254.78470215 74.0949707 255.96166992 C72.08042096 266.22115053 69.37214775 276.11005887 66 286 C65.70754395 286.86898926 65.41508789 287.73797852 65.11376953 288.63330078 C55.39225594 317.24203242 42.16614901 343.80687796 24 368 C23.29810547 368.93730957 23.29810547 368.93730957 22.58203125 369.89355469 C16.91662188 377.40379273 10.9056778 384.48574703 4.46875 391.34375 C2.48747998 393.47549623 0.60792973 395.63790094 -1.25 397.875 C-10.35688085 408.3294384 -21.19111221 417.36413732 -32.24511719 425.67773438 C-34.00928297 427.00699452 -35.75844573 428.35447286 -37.5078125 429.703125 C-47.50061967 437.31202719 -58.10810031 443.76473283 -69 450 C-70.01344482 450.58225342 -70.01344482 450.58225342 -71.04736328 451.17626953 C-96.10987321 465.43586206 -125.5816874 476.20349826 -154.08300781 480.68994141 C-156.82079496 481.13275721 -159.53178299 481.70120009 -162.25 482.25 C-166.56453258 483.02702482 -170.62213672 483.16520239 -175 483 C-174.3294381 477.51353379 -172.5867302 472.64016662 -170.703125 467.48046875 C-170.19208221 466.06227592 -170.19208221 466.06227592 -169.67071533 464.61543274 C-168.53572387 461.4708636 -167.39300234 458.32916534 -166.25 455.1875 C-165.44179199 452.95452309 -164.63385483 450.72144813 -163.82617188 448.48828125 C-157.34385013 430.59219917 -150.75963973 412.73363905 -144.16223145 394.87973022 C-138.02888534 378.28103081 -131.97006404 361.65810372 -126 345 C-119.16010338 325.91482661 -112.18537757 306.88213931 -105.15673828 287.86572266 C-99.02527393 271.27167943 -92.96837031 254.65337775 -87 238 C-80.16010338 218.91482661 -73.18537757 199.88213931 -66.15673828 180.86572266 C-60.02527349 164.27167823 -53.96847034 147.65334258 -48 131 C-41.14238716 111.86671842 -34.15497851 92.78382657 -27.10949707 73.71896362 C-20.00975848 54.50536584 -12.99782095 35.26171788 -6.06420898 15.98754883 C-5.7272551 15.05203186 -5.39030121 14.11651489 -5.0431366 13.15264893 C-4.41732149 11.41465955 -3.79259057 9.67627926 -3.16914368 7.93743896 C-1.11174345 2.2234869 -1.11174345 2.2234869 0 0 Z " fill="#000000" transform="translate(709,303)"/>
</svg>
