<?xml version="1.0" encoding="UTF-8"?>
<svg version="1.1" xmlns="http://www.w3.org/2000/svg" width="1000" height="1000">
<path d="M0 0 C1.1921814 -0.00688843 1.1921814 -0.00688843 2.40844727 -0.01391602 C8.12812194 0.00156097 8.12812194 0.00156097 10.375 1.125 C11.5057341 4.87438515 11.31606337 7.90548897 10.703125 11.73828125 C10.53498291 12.81295654 10.36684082 13.88763184 10.19360352 14.99487305 C10.00596436 16.13093994 9.8183252 17.26700684 9.625 18.4375 C9.43671631 19.61159424 9.24843262 20.78568848 9.05444336 21.99536133 C7.63901597 30.73416549 6.15952869 39.45309163 4.375 48.125 C4.19855957 48.98657715 4.02211914 49.8481543 3.84033203 50.73583984 C1.30663853 62.99925393 -1.53954614 75.10588918 -5.04736328 87.12744141 C-5.59818724 89.03227725 -6.12587284 90.94375878 -6.65234375 92.85546875 C-10.09270949 105.30434237 -14.53816844 117.26165508 -19.625 129.125 C-20.12 130.32125 -20.615 131.5175 -21.125 132.75 C-22.76840788 136.44766773 -24.54963927 140.05346928 -26.3828125 143.66015625 C-27.12711454 145.13705746 -27.8564225 146.62187772 -28.5546875 148.12109375 C-38.11292365 168.46406537 -53.93773215 188.02853994 -73.625 199.125 C-74.285 199.125 -74.945 199.125 -75.625 199.125 C-75.625 199.785 -75.625 200.445 -75.625 201.125 C-82.13411706 204.51731762 -88.58790842 206.13606903 -95.78125 207.51171875 C-98.51256113 207.83184497 -98.51256113 207.83184497 -99.625 209.125 C-101.32719518 209.42255261 -103.03938829 209.66342039 -104.75390625 209.87890625 C-105.78837891 210.01103516 -106.82285156 210.14316406 -107.88867188 210.27929688 C-108.97728516 210.41400391 -110.06589844 210.54871094 -111.1875 210.6875 C-112.8262207 210.89536133 -112.8262207 210.89536133 -114.49804688 211.10742188 C-117.20657447 211.45042319 -119.91554269 211.78943515 -122.625 212.125 C-122.625 215.22675027 -120.69520407 216.30140751 -118.5625 218.5 C-101.74610331 236.41688147 -88.58396124 257.77904245 -76.625 279.125 C-76.2345752 279.81255371 -75.84415039 280.50010742 -75.44189453 281.20849609 C-50.53261257 325.26712627 -35.64543536 379.02251047 -35.421875 429.625 C-35.41486069 430.69098419 -35.40784637 431.75696838 -35.40061951 432.85525513 C-35.38320344 436.27854683 -35.3767668 439.70166561 -35.375 443.125 C-35.37398788 444.87825592 -35.37398788 444.87825592 -35.37295532 446.66693115 C-35.38858344 463.68229557 -35.75700768 480.31436792 -38.625 497.125 C-38.79660645 498.18074219 -38.96821289 499.23648437 -39.14501953 500.32421875 C-49.80099433 564.69811479 -78.38084329 625.39892673 -122.3828125 673.6640625 C-123.86819061 675.29435555 -125.34236728 676.9349308 -126.8046875 678.5859375 C-134.86696529 687.68110497 -143.34492079 696.27007581 -152.625 704.125 C-153.98625 705.31996094 -153.98625 705.31996094 -155.375 706.5390625 C-164.34745539 714.36264099 -173.87897535 721.30123891 -183.625 728.125 C-184.24036621 728.56166992 -184.85573242 728.99833984 -185.48974609 729.44824219 C-236.47012856 765.51346648 -302.46355658 788.05128853 -365.125 788.328125 C-366.19098419 788.33513931 -367.25696838 788.34215363 -368.35525513 788.34938049 C-371.77854683 788.36679656 -375.20166561 788.3732332 -378.625 788.375 C-379.79383728 788.37567474 -380.96267456 788.37634949 -382.16693115 788.37704468 C-399.18229557 788.36141656 -415.81436792 787.99299232 -432.625 785.125 C-433.68074219 784.95339355 -434.73648437 784.78178711 -435.82421875 784.60498047 C-500.19811479 773.94900567 -560.89892673 745.36915671 -609.1640625 701.3671875 C-610.79435555 699.88180939 -612.4349308 698.40763272 -614.0859375 696.9453125 C-623.18110497 688.88303471 -631.77007581 680.40507921 -639.625 671.125 C-640.42164063 670.2175 -641.21828125 669.31 -642.0390625 668.375 C-649.86264099 659.40254461 -656.80123891 649.87102465 -663.625 640.125 C-664.28000488 639.20195068 -664.28000488 639.20195068 -664.94824219 638.26025391 C-701.01346648 587.27987144 -723.55128853 521.28644342 -723.828125 458.625 C-723.83513931 457.55901581 -723.84215363 456.49303162 -723.84938049 455.39474487 C-723.86679656 451.97145317 -723.8732332 448.54833439 -723.875 445.125 C-723.87601212 443.37174408 -723.87601212 443.37174408 -723.87704468 441.58306885 C-723.86141656 424.56770443 -723.49299232 407.93563208 -720.625 391.125 C-720.45339355 390.06925781 -720.28178711 389.01351563 -720.10498047 387.92578125 C-710.71073612 331.17413531 -687.3908551 277.20078579 -651.625 232.125 C-650.8721875 231.15820312 -650.119375 230.19140625 -649.34375 229.1953125 C-645.38768791 224.15604293 -641.22068853 219.35281855 -636.90234375 214.62109375 C-635.4034579 212.97823259 -633.91608741 211.32477845 -632.44140625 209.66015625 C-626.74798004 203.23602293 -620.8421849 197.04446055 -614.625 191.125 C-614.04178734 190.35405502 -614.04178734 190.35405502 -613.4467926 189.5675354 C-610.58001187 186.28992507 -608.33203409 185.21956027 -603.9822998 184.63781738 C-599.27798609 184.44538679 -594.58230605 184.60720365 -589.87890625 184.7578125 C-588.14018117 184.79147264 -586.40140181 184.82242815 -584.6625824 184.85079956 C-580.10299116 184.93242289 -575.54506408 185.05060589 -570.98651123 185.17657471 C-566.32804522 185.2987783 -561.6689384 185.38617933 -557.00976562 185.4765625 C-547.88055221 185.65876537 -538.75271861 185.8796212 -529.625 186.125 C-529.38348709 186.80022202 -529.14197418 187.47544403 -528.8931427 188.17112732 C-525.74533114 196.96971169 -522.59310182 205.76670697 -519.4375 214.5625 C-519.17891205 215.28327728 -518.9203241 216.00405457 -518.65390015 216.74667358 C-511.23962983 237.40861667 -503.7452901 258.03797465 -496.125 278.625 C-488.42543243 299.42736931 -480.8732342 320.27841221 -473.39587402 341.16131592 C-466.40412155 360.68634969 -459.32383998 380.17507294 -452.125 399.625 C-444.67586364 419.75118134 -437.35945078 439.92098642 -430.125 460.125 C-421.92492234 483.02509716 -413.59849049 505.87372565 -405.16113281 528.68774414 C-398.58513456 546.47506537 -392.10728506 564.29642034 -385.68798828 582.14086914 C-385.35121063 583.07589264 -385.01443298 584.01091614 -384.66744995 584.97427368 C-384.04188777 586.71155047 -383.41741185 588.44921894 -382.79421997 590.18734741 C-381.36575636 594.22119994 -381.36575636 594.22119994 -379.625 598.125 C-376.57885492 589.89748715 -373.53762065 581.66816381 -370.5 573.4375 C-370.14947571 572.48772781 -370.14947571 572.48772781 -369.79187012 571.51876831 C-362.31397142 551.25250944 -354.93200052 530.95345016 -347.625 510.625 C-340.12075505 489.74835177 -332.51735249 468.91095656 -324.82275391 448.10351562 C-317.99854272 429.6431167 -311.28260166 411.14590929 -304.625 392.625 C-297.12061305 371.74840251 -289.51735303 350.91095802 -281.82275391 330.10351562 C-275.46988418 312.91815802 -269.20454918 295.70322634 -263.00531006 278.46203613 C-261.63744225 274.6584563 -260.26669071 270.85592061 -258.89501953 267.05371094 C-258.6699 266.4296574 -258.44478046 265.80560387 -258.21283913 265.16263962 C-257.07470873 262.0078854 -255.93626208 258.85324547 -254.79763794 255.69866943 C-252.41791517 249.10425215 -250.04391729 242.50784191 -247.67871094 235.90820312 C-245.49701992 229.82137708 -243.30338663 223.7389959 -241.09617233 217.66137695 C-239.9364078 214.46672486 -238.78229009 211.27029612 -237.64208984 208.06860352 C-236.38807591 204.55583126 -235.11456255 201.05074961 -233.8359375 197.546875 C-233.28273331 195.97513519 -233.28273331 195.97513519 -232.71835327 194.37164307 C-232.19333725 192.95162994 -232.19333725 192.95162994 -231.65771484 191.50292969 C-231.21097916 190.26334503 -231.21097916 190.26334503 -230.75521851 188.99871826 C-229.625 187.125 -229.625 187.125 -227.49795532 186.35137939 C-226.87988007 186.27667419 -226.26180481 186.20196899 -225.625 186.125 C-225.80546875 184.8978125 -225.9859375 183.670625 -226.171875 182.40625 C-226.83118595 176.42101583 -226.37918205 170.60892565 -225.875 164.625 C-225.77920654 163.47153076 -225.68341309 162.31806152 -225.5847168 161.12963867 C-224.39767884 147.64039952 -222.10625491 135.17530023 -218.25 122.1875 C-217.97003174 121.23979736 -217.69006348 120.29209473 -217.40161133 119.31567383 C-215.64924343 113.66673016 -213.48105674 108.48782016 -210.72558594 103.25317383 C-209.4966514 100.9552913 -209.4966514 100.9552913 -208.25 97.75 C-199.39406021 77.99444201 -185.27923152 62.11089651 -169.6875 47.4375 C-169.18798828 46.95216797 -168.68847656 46.46683594 -168.17382812 45.96679688 C-164.8591105 42.865932 -162.01911637 41.24481207 -157.625 40.125 C-157.625 39.465 -157.625 38.805 -157.625 38.125 C-151.875 35.125 -151.875 35.125 -149.625 35.125 C-149.625 34.465 -149.625 33.805 -149.625 33.125 C-139.22916695 28.02586433 -128.85056012 23.22556247 -117.9453125 19.31640625 C-115.90717337 18.58507397 -113.88256764 17.81256413 -111.88671875 16.97265625 C-109.04994046 15.90947682 -106.62803535 15.98532394 -103.625 16.125 C-103.625 15.465 -103.625 14.805 -103.625 14.125 C-102.1709375 13.9703125 -102.1709375 13.9703125 -100.6875 13.8125 C-97.74819667 13.39934491 -95.11043223 12.67324837 -92.3125 11.6875 C-83.09323352 8.47147681 -73.31459877 7.43333215 -63.6875 6.0625 C-61.28219075 5.71997581 -58.87722329 5.37504015 -56.47265625 5.02734375 C-55.42086182 4.87773193 -54.36906738 4.72812012 -53.28540039 4.57397461 C-50.53189674 4.17949288 -50.53189674 4.17949288 -47.625 3.125 C-45.29477522 2.91939193 -42.96043702 2.75900048 -40.625 2.625 C-36.05646538 2.34868397 -31.49498412 2.05080874 -26.9375 1.625 C-26.05835938 1.54378906 -25.17921875 1.46257813 -24.2734375 1.37890625 C-22.48615988 1.20755958 -20.69968364 1.02766845 -18.9140625 0.83984375 C-12.60200692 0.22593149 -6.3375434 0.02071298 0 0 Z M-593.5 250.75 C-633.69303267 291.51449759 -657.62270036 349.17150198 -665.625 405.125 C-665.74214355 405.89247559 -665.85928711 406.65995117 -665.97998047 407.45068359 C-673.84779778 460.53799177 -663.73941981 516.66965931 -641.625 565.125 C-641.23086914 565.9917334 -640.83673828 566.8584668 -640.43066406 567.75146484 C-609.15060437 635.53360918 -548.33309032 689.78190081 -478.5625 715.5 C-458.49314013 722.59781268 -435.13919384 730.50727405 -413.625 730.125 C-419.80575883 711.54659382 -426.51555813 693.1728641 -433.3125 674.8125 C-441.13263947 653.68522823 -448.83663837 632.51964824 -456.4375 611.3125 C-456.92976885 609.93929688 -457.4220479 608.56609742 -457.91433716 607.19290161 C-458.15723449 606.51534411 -458.40013182 605.83778662 -458.65038967 605.13969707 C-459.6168627 602.44375315 -460.58334116 599.74781116 -461.5498867 597.05189323 C-462.02303489 595.73215838 -462.49615037 594.41241179 -462.96923256 593.09265327 C-467.81811362 579.56716914 -472.72020809 566.06142741 -477.64111328 552.56201172 C-478.2803157 550.80828363 -478.91947545 549.05454 -479.55859375 547.30078125 C-479.87890564 546.42186218 -480.19921753 545.54294312 -480.52923584 544.63739014 C-483.20972941 537.27685786 -485.87398813 529.91050722 -488.53515625 522.54296875 C-497.28137359 498.33362538 -506.07340215 474.14347348 -515 450 C-522.47974553 429.76611577 -529.84368325 409.49339667 -537.125 389.1875 C-537.36488899 388.51853951 -537.60477798 387.84957901 -537.85193634 387.16034698 C-539.06068938 383.78943873 -540.26927313 380.41846978 -541.47781372 377.04748535 C-541.71624119 376.38244492 -541.95466866 375.71740448 -542.2003212 375.0322113 C-542.68117116 373.69094316 -543.16199343 372.34966509 -543.64278793 371.00837708 C-548.86018272 356.4542553 -554.11042765 341.91212921 -559.375 327.375 C-559.80082367 326.19908295 -560.22664734 325.02316589 -560.66537476 323.81161499 C-569.93189193 298.2299331 -579.26890032 272.67403672 -588.625 247.125 C-590.62481084 247.125 -592.17946833 249.45766473 -593.5 250.75 Z M-170.625 248.125 C-171.06030029 249.3411499 -171.49560059 250.5572998 -171.9440918 251.81030273 C-180.80828313 276.56141129 -189.7578177 301.27838737 -198.875 325.9375 C-206.21842247 345.80046561 -213.46167493 365.69661827 -220.625 385.625 C-228.12929769 406.50162916 -235.73264736 427.33904302 -243.42724609 448.14648438 C-250.25145728 466.6068833 -256.96739834 485.10409071 -263.625 503.625 C-271.12938695 524.50159749 -278.73264697 545.33904198 -286.42724609 566.14648438 C-293.71980413 585.87382384 -300.88335582 605.64527103 -307.99514771 625.43823242 C-313.08909476 639.61370015 -318.21369217 653.77660777 -323.43359375 667.90625 C-323.79086485 668.87367378 -323.79086485 668.87367378 -324.15535355 669.86064148 C-326.6501849 676.6149381 -329.15190354 683.36663333 -331.66210938 690.11523438 C-336.58100357 703.37074992 -341.25754816 716.67735258 -345.625 730.125 C-337.73030355 729.61493967 -330.11034773 728.6539718 -322.375 727 C-321.34560303 726.78045654 -320.31620605 726.56091309 -319.25561523 726.3347168 C-242.37485057 709.44420151 -176.99796138 662.51727228 -134.65625 596.546875 C-112.95009702 561.89989722 -99.40338659 523.52850361 -93.625 483.125 C-93.50785645 482.35752441 -93.39071289 481.59004883 -93.27001953 480.79931641 C-85.40220222 427.71200823 -95.51058019 371.58034069 -117.625 323.125 C-118.21619629 321.8248999 -118.21619629 321.8248999 -118.81933594 320.49853516 C-130.6081538 294.95282451 -147.52417951 267.22488062 -168.625 248.125 C-169.285 248.125 -169.945 248.125 -170.625 248.125 Z " fill="#FEFEFE" transform="translate(879.625,55.875)"/>
<path d="M0 0 C1.1921814 -0.00688843 1.1921814 -0.00688843 2.40844727 -0.01391602 C8.12812194 0.00156097 8.12812194 0.00156097 10.375 1.125 C11.5057341 4.87438515 11.31606337 7.90548897 10.703125 11.73828125 C10.53498291 12.81295654 10.36684082 13.88763184 10.19360352 14.99487305 C10.00596436 16.13093994 9.8183252 17.26700684 9.625 18.4375 C9.43671631 19.61159424 9.24843262 20.78568848 9.05444336 21.99536133 C7.63901597 30.73416549 6.15952869 39.45309163 4.375 48.125 C4.19855957 48.98657715 4.02211914 49.8481543 3.84033203 50.73583984 C1.30663853 62.99925393 -1.53954614 75.10588918 -5.04736328 87.12744141 C-5.59818724 89.03227725 -6.12587284 90.94375878 -6.65234375 92.85546875 C-10.09270949 105.30434237 -14.53816844 117.26165508 -19.625 129.125 C-20.12 130.32125 -20.615 131.5175 -21.125 132.75 C-22.76840788 136.44766773 -24.54963927 140.05346928 -26.3828125 143.66015625 C-27.12711454 145.13705746 -27.8564225 146.62187772 -28.5546875 148.12109375 C-38.11292365 168.46406537 -53.93773215 188.02853994 -73.625 199.125 C-74.285 199.125 -74.945 199.125 -75.625 199.125 C-75.625 199.785 -75.625 200.445 -75.625 201.125 C-82.13411706 204.51731762 -88.58790842 206.13606903 -95.78125 207.51171875 C-98.51256113 207.83184497 -98.51256113 207.83184497 -99.625 209.125 C-103.61211608 209.99879494 -107.64958388 210.54005763 -111.6875 211.125 C-112.80833984 211.32222656 -113.92917969 211.51945313 -115.08398438 211.72265625 C-123.24088038 212.86261001 -123.24088038 212.86261001 -126.96557617 210.87768555 C-129.04640085 209.08322905 -130.82326151 207.19777896 -132.625 205.125 C-133.84122826 203.91667246 -135.06379806 202.71469067 -136.29296875 201.51953125 C-137.46878718 200.32812185 -138.6419816 199.13411691 -139.8125 197.9375 C-140.99100236 196.73323802 -142.1719421 195.53135581 -143.35546875 194.33203125 C-143.86489014 193.8110083 -144.37431152 193.28998535 -144.89916992 192.75317383 C-145.46869385 192.21587646 -146.03821777 191.6785791 -146.625 191.125 C-147.68817444 190.10151711 -147.68817444 190.10151711 -148.77282715 189.05735779 C-152.40179596 186.59871783 -154.62364198 186.60882527 -158.9855957 186.57910156 C-160.06933723 186.56359505 -160.06933723 186.56359505 -161.17497253 186.54777527 C-163.55047108 186.51840199 -165.92511557 186.51684934 -168.30078125 186.515625 C-169.95274983 186.50063955 -171.60470345 186.48391164 -173.25663757 186.46551514 C-177.59506935 186.4218699 -181.93329903 186.40184892 -186.27191162 186.38677979 C-190.70288021 186.36719842 -195.13363087 186.32522959 -199.56445312 186.28515625 C-208.25124501 186.20988479 -216.93795125 186.15957494 -225.625 186.125 C-226.27656156 181.07614251 -226.77225147 176.25280999 -226.390625 171.15625 C-226.31303955 170.09962158 -226.2354541 169.04299316 -226.15551758 167.9543457 C-226.06294678 166.85566162 -225.97037598 165.75697754 -225.875 164.625 C-225.77920654 163.47153076 -225.68341309 162.31806152 -225.5847168 161.12963867 C-224.39767884 147.64039952 -222.10625491 135.17530023 -218.25 122.1875 C-217.97003174 121.23979736 -217.69006348 120.29209473 -217.40161133 119.31567383 C-215.64924343 113.66673016 -213.48105674 108.48782016 -210.72558594 103.25317383 C-209.4966514 100.9552913 -209.4966514 100.9552913 -208.25 97.75 C-199.39406021 77.99444201 -185.27923152 62.11089651 -169.6875 47.4375 C-169.18798828 46.95216797 -168.68847656 46.46683594 -168.17382812 45.96679688 C-164.8591105 42.865932 -162.01911637 41.24481207 -157.625 40.125 C-157.625 39.465 -157.625 38.805 -157.625 38.125 C-151.875 35.125 -151.875 35.125 -149.625 35.125 C-149.625 34.465 -149.625 33.805 -149.625 33.125 C-139.22916695 28.02586433 -128.85056012 23.22556247 -117.9453125 19.31640625 C-115.90717337 18.58507397 -113.88256764 17.81256413 -111.88671875 16.97265625 C-109.04994046 15.90947682 -106.62803535 15.98532394 -103.625 16.125 C-103.625 15.465 -103.625 14.805 -103.625 14.125 C-102.655625 14.021875 -101.68625 13.91875 -100.6875 13.8125 C-97.74819667 13.39934491 -95.11043223 12.67324837 -92.3125 11.6875 C-83.09323352 8.47147681 -73.31459877 7.43333215 -63.6875 6.0625 C-61.28219075 5.71997581 -58.87722329 5.37504015 -56.47265625 5.02734375 C-54.8949646 4.80292603 -54.8949646 4.80292603 -53.28540039 4.57397461 C-50.53189674 4.17949288 -50.53189674 4.17949288 -47.625 3.125 C-45.29477522 2.91939193 -42.96043702 2.75900048 -40.625 2.625 C-36.05646538 2.34868397 -31.49498412 2.05080874 -26.9375 1.625 C-26.05835938 1.54378906 -25.17921875 1.46257813 -24.2734375 1.37890625 C-22.48615988 1.20755958 -20.69968364 1.02766845 -18.9140625 0.83984375 C-12.60200692 0.22593149 -6.3375434 0.02071298 0 0 Z " fill="#5CB947" transform="translate(879.625,55.875)"/>
<path d="M0 0 C1.1921814 -0.00688843 1.1921814 -0.00688843 2.40844727 -0.01391602 C8.12812194 0.00156097 8.12812194 0.00156097 10.375 1.125 C8.83578927 5.34321674 5.71881024 7.46658512 2.25 10.0625 C0.97550794 11.03898974 -0.29788704 12.01691263 -1.5703125 12.99609375 C-2.23579102 13.50640137 -2.90126953 14.01670898 -3.58691406 14.54248047 C-6.98087354 17.17779974 -10.30047613 19.90298799 -13.625 22.625 C-18.56376719 26.6579025 -23.53336337 30.64292296 -28.5625 34.5625 C-35.24906355 39.78058176 -41.78732348 45.17058208 -48.32421875 50.57421875 C-57.87299123 58.46646146 -67.48977636 66.26524071 -77.25756836 73.88476562 C-82.77873884 78.20969554 -88.18293508 82.67275882 -93.58740234 87.14208984 C-98.01690062 90.80457543 -102.47324354 94.42744999 -106.97265625 98.00390625 C-110.54028762 100.8569605 -114.08188102 103.74159761 -117.625 106.625 C-125.18228521 112.77124271 -132.75787154 118.88847036 -140.43701172 124.88232422 C-147.14705788 130.12495722 -153.74119077 135.49275721 -160.2980957 140.92553711 C-164.77199909 144.62397067 -169.29259047 148.24962024 -173.875 151.8125 C-179.0580773 155.84304306 -184.09248675 160.01867886 -189.08520508 164.28198242 C-192.70907242 167.36984366 -196.3808653 170.35835434 -200.18359375 173.22265625 C-202.16733285 174.76838576 -204.06923388 176.35510248 -205.97265625 177.99609375 C-216.41905794 186.84771099 -216.41905794 186.84771099 -222 186.8125 C-223.794375 186.4721875 -223.794375 186.4721875 -225.625 186.125 C-226.70136876 178.80569245 -226.49506118 171.98424652 -225.875 164.625 C-225.77920654 163.47153076 -225.68341309 162.31806152 -225.5847168 161.12963867 C-224.39767884 147.64039952 -222.10625491 135.17530023 -218.25 122.1875 C-217.97003174 121.23979736 -217.69006348 120.29209473 -217.40161133 119.31567383 C-215.64924343 113.66673016 -213.48105674 108.48782016 -210.72558594 103.25317383 C-209.4966514 100.9552913 -209.4966514 100.9552913 -208.25 97.75 C-199.39406021 77.99444201 -185.27923152 62.11089651 -169.6875 47.4375 C-169.18798828 46.95216797 -168.68847656 46.46683594 -168.17382812 45.96679688 C-164.8591105 42.865932 -162.01911637 41.24481207 -157.625 40.125 C-157.625 39.465 -157.625 38.805 -157.625 38.125 C-151.875 35.125 -151.875 35.125 -149.625 35.125 C-149.625 34.465 -149.625 33.805 -149.625 33.125 C-139.22916695 28.02586433 -128.85056012 23.22556247 -117.9453125 19.31640625 C-115.90717337 18.58507397 -113.88256764 17.81256413 -111.88671875 16.97265625 C-109.04994046 15.90947682 -106.62803535 15.98532394 -103.625 16.125 C-103.625 15.465 -103.625 14.805 -103.625 14.125 C-102.655625 14.021875 -101.68625 13.91875 -100.6875 13.8125 C-97.74819667 13.39934491 -95.11043223 12.67324837 -92.3125 11.6875 C-83.09323352 8.47147681 -73.31459877 7.43333215 -63.6875 6.0625 C-61.28219075 5.71997581 -58.87722329 5.37504015 -56.47265625 5.02734375 C-54.8949646 4.80292603 -54.8949646 4.80292603 -53.28540039 4.57397461 C-50.53189674 4.17949288 -50.53189674 4.17949288 -47.625 3.125 C-45.29477522 2.91939193 -42.96043702 2.75900048 -40.625 2.625 C-36.05646538 2.34868397 -31.49498412 2.05080874 -26.9375 1.625 C-26.05835938 1.54378906 -25.17921875 1.46257813 -24.2734375 1.37890625 C-22.48615988 1.20755958 -20.69968364 1.02766845 -18.9140625 0.83984375 C-12.60200692 0.22593149 -6.3375434 0.02071298 0 0 Z " fill="#55AB41" transform="translate(879.625,55.875)"/>
</svg>
